<svg width="400" height="62" viewBox="0 0 400 62" fill="none" xmlns="http://www.w3.org/2000/svg">
<path d="M0 60.1387V0H16.2187V20.9765C17.5402 19.7161 19.132 18.7258 20.9942 18.0056C22.8563 17.2854 25.1089 16.9253 27.7519 16.9253C32.4373 16.9253 36.1616 18.2757 38.9248 20.9765C41.688 23.6774 43.0696 27.8487 43.0696 33.4904V60.1387H26.8509V36.1012C26.8509 34.4207 26.4905 33.1303 25.7697 32.23C25.0488 31.2697 23.9376 30.7896 22.4358 30.7896C20.6938 30.7896 19.2221 31.3597 18.0207 32.5001C16.8194 33.5804 16.2187 35.381 16.2187 37.9018V60.1387H0Z" fill="#EF233C"/>
<path d="M72.832 61.039C68.3869 61.039 64.2421 60.2587 60.3977 58.6982C56.6133 57.1377 53.5498 54.737 51.2071 51.496C48.9244 48.195 47.7831 44.0237 47.7831 38.9821C47.7831 34.4807 48.8043 30.5795 50.8467 27.2785C52.9491 23.9774 55.7423 21.4267 59.2263 19.6261C62.7704 17.8255 66.7349 16.9253 71.12 16.9253C75.505 16.9253 79.3795 17.7055 82.7434 19.266C86.1073 20.8265 88.7503 22.9871 90.6725 25.748C92.5947 28.5089 93.5558 31.7499 93.5558 35.471C93.5558 36.6714 93.3756 37.9618 93.0152 39.3422C92.7149 40.7226 92.3244 41.923 91.8439 42.9433H64.182C64.9629 46.5445 68.4469 48.345 74.634 48.345C76.9167 48.345 79.1392 48.0149 81.3017 47.3547C83.4642 46.6945 85.4765 45.8843 87.3387 44.924L91.7538 55.7273C89.0506 57.4678 86.0772 58.7883 82.8335 59.6885C79.5898 60.5888 76.2559 61.039 72.832 61.039ZM64.182 33.4004H76.9767C77.0368 33.2203 77.0668 33.0703 77.0668 32.9502C77.1269 32.7702 77.1569 32.6201 77.1569 32.5001C77.1569 31.4798 76.6764 30.6095 75.7153 29.8893C74.8143 29.109 73.4026 28.7189 71.4804 28.7189C69.378 28.7189 67.6961 29.1991 66.4346 30.1594C65.2332 31.0596 64.4824 32.14 64.182 33.4004Z" fill="#EF233C"/>
<path d="M98.2025 60.1387V17.8255H113.52V21.5167C114.842 20.0762 116.464 18.9659 118.386 18.1856C120.368 17.3454 122.741 16.9253 125.504 16.9253C127.907 16.9253 130.129 17.3754 132.172 18.2757C134.214 19.1159 135.866 20.4063 137.127 22.1469C139.71 18.6658 144.065 16.9253 150.192 16.9253C160.945 16.9253 166.321 22.447 166.321 33.4904V60.1387H150.102V36.1012C150.102 34.4207 149.802 33.1303 149.201 32.23C148.661 31.2697 147.639 30.7896 146.138 30.7896C144.396 30.7896 142.984 31.3597 141.903 32.5001C140.882 33.5804 140.371 35.381 140.371 37.9018V60.1387H124.152V36.1012C124.152 34.4207 123.852 33.1303 123.251 32.23C122.711 31.2697 121.69 30.7896 120.188 30.7896C118.446 30.7896 117.034 31.3597 115.953 32.5001C114.932 33.5804 114.421 35.381 114.421 37.9018V60.1387H98.2025Z" fill="#EF233C"/>
<path d="M195.213 61.039C190.528 61.039 186.353 60.1387 182.689 58.3381C179.085 56.4775 176.231 53.8967 174.129 50.5957C172.027 47.2347 170.975 43.3635 170.975 38.9821C170.975 34.6007 172.027 30.7596 174.129 27.4585C176.231 24.1575 179.085 21.5767 182.689 19.7161C186.353 17.8555 190.528 16.9253 195.213 16.9253C199.899 16.9253 204.043 17.8555 207.648 19.7161C211.312 21.5767 214.195 24.1575 216.298 27.4585C218.4 30.7596 219.451 34.6007 219.451 38.9821C219.451 43.3635 218.4 47.2347 216.298 50.5957C214.195 53.8967 211.312 56.4775 207.648 58.3381C204.043 60.1387 199.899 61.039 195.213 61.039ZM195.213 47.1747C197.496 47.1747 199.358 46.4544 200.8 45.014C202.301 43.5135 203.052 41.5029 203.052 38.9821C203.052 36.4613 202.301 34.4807 200.8 33.0403C199.358 31.5398 197.496 30.7896 195.213 30.7896C192.931 30.7896 191.038 31.5398 189.537 33.0403C188.095 34.4807 187.374 36.4613 187.374 38.9821C187.374 41.5029 188.095 43.5135 189.537 45.014C191.038 46.4544 192.931 47.1747 195.213 47.1747Z" fill="#EF233C"/>
<path d="M242.594 61.039C238.869 61.039 235.445 60.1687 232.322 58.4282C229.258 56.6876 226.826 54.1668 225.023 50.8658C223.221 47.5648 222.32 43.6035 222.32 38.9821C222.32 34.3007 223.221 30.3394 225.023 27.0984C226.826 23.7974 229.258 21.2766 232.322 19.5361C235.445 17.7955 238.869 16.9253 242.594 16.9253C244.996 16.9253 247.129 17.2854 248.991 18.0056C250.853 18.7258 252.415 19.7161 253.676 20.9765V0H269.895V60.1387H254.578V55.9974C253.256 57.5579 251.604 58.7883 249.622 59.6885C247.64 60.5888 245.297 61.039 242.594 61.039ZM246.558 47.1747C248.841 47.1747 250.703 46.4544 252.145 45.014C253.646 43.5135 254.397 41.5029 254.397 38.9821C254.397 36.4613 253.646 34.4807 252.145 33.0403C250.703 31.5398 248.841 30.7896 246.558 30.7896C244.276 30.7896 242.383 31.5398 240.882 33.0403C239.44 34.4807 238.719 36.4613 238.719 38.9821C238.719 41.5029 239.44 43.5135 240.882 45.014C242.383 46.4544 244.276 47.1747 246.558 47.1747Z" fill="#2B2D42"/>
<path d="M289.773 61.039C287.07 61.039 284.547 60.5888 282.204 59.6885C279.922 58.7282 278.059 57.2878 276.618 55.3672C275.236 53.4466 274.545 51.0158 274.545 48.0749C274.545 45.074 275.236 42.7033 276.618 40.9627C278.059 39.2222 279.922 37.9018 282.204 37.0015C284.547 36.1012 287.07 35.501 289.773 35.2009L301.847 33.7605C301.366 32.3801 300.495 31.4198 299.234 30.8796C297.972 30.2794 296.621 29.9793 295.179 29.9793C293.437 29.9793 291.545 30.2494 289.503 30.7896C287.52 31.3297 285.117 32.26 282.294 33.5804L277.609 22.3269C280.793 20.4063 283.976 19.0259 287.16 18.1856C290.404 17.3454 293.527 16.9253 296.531 16.9253C303.619 16.9253 309.055 18.3357 312.839 21.1566C316.624 23.9174 318.516 28.3288 318.516 34.3907V60.1387H303.198V56.6276C301.396 58.3081 299.504 59.4785 297.522 60.1387C295.6 60.7389 293.017 61.039 289.773 61.039ZM295.359 49.2453C297.342 49.2453 298.993 48.7351 300.315 47.7148C301.637 46.6345 302.297 45.3741 302.297 43.9336V43.1234L295.359 44.1137C292.416 44.5338 290.944 45.4941 290.944 46.9946C290.944 48.4951 292.416 49.2453 295.359 49.2453Z" fill="#2B2D42"/>
<path d="M343.16 60.6788C337.273 60.6788 333.038 59.4485 330.455 56.9877C327.933 54.4669 326.671 50.6857 326.671 45.6442V30.7896H318.742V17.8255H326.671V5.76179H342.89V17.8255H352.621V30.7896H342.89V44.0237C342.89 45.104 343.19 46.0043 343.791 46.7245C344.452 47.3847 345.563 47.7148 347.125 47.7148C347.906 47.7148 348.837 47.6848 349.918 47.6248C350.999 47.5648 351.9 47.4747 352.621 47.3547V59.5985C351.42 59.8986 349.978 60.1387 348.296 60.3187C346.614 60.5588 344.902 60.6788 343.16 60.6788Z" fill="#2B2D42"/>
<path d="M371.257 61.039C368.554 61.039 366.031 60.5888 363.688 59.6885C361.406 58.7282 359.543 57.2878 358.102 55.3672C356.72 53.4466 356.029 51.0158 356.029 48.0749C356.029 45.074 356.72 42.7033 358.102 40.9627C359.543 39.2222 361.406 37.9018 363.688 37.0015C366.031 36.1012 368.554 35.501 371.257 35.2009L383.331 33.7605C382.85 32.3801 381.979 31.4198 380.718 30.8796C379.456 30.2794 378.105 29.9793 376.663 29.9793C374.921 29.9793 373.029 30.2494 370.987 30.7896C369.004 31.3297 366.602 32.26 363.778 33.5804L359.093 22.3269C362.277 20.4063 365.46 19.0259 368.644 18.1856C371.888 17.3454 375.011 16.9253 378.015 16.9253C385.103 16.9253 390.539 18.3357 394.323 21.1566C398.108 23.9174 400 28.3288 400 34.3907V60.1387H384.682V56.6276C382.88 58.3081 380.988 59.4785 379.006 60.1387C377.084 60.7389 374.501 61.039 371.257 61.039ZM376.843 49.2453C378.826 49.2453 380.478 48.7351 381.799 47.7148C383.121 46.6345 383.781 45.3741 383.781 43.9336V43.1234L376.843 44.1137C373.9 44.5338 372.428 45.4941 372.428 46.9946C372.428 48.4951 373.9 49.2453 376.843 49.2453Z" fill="#2B2D42"/>
</svg>
